<?xml version="1.0" encoding="iso-8859-1"?>
<!-- Generator: Adobe Illustrator 19.0.0, SVG Export Plug-In . SVG Version: 6.00 Build 0)  -->
<svg version="1.1" id="Layer_1" xmlns="http://www.w3.org/2000/svg" xmlns:xlink="http://www.w3.org/1999/xlink" x="0px" y="0px"
	 viewBox="0 0 504.123 504.123" style="enable-background:new 0 0 504.123 504.123;" xml:space="preserve">
<ellipse style="fill:#97A8AA;" cx="252.054" cy="464.03" rx="165.258" ry="40.07"/>
<path style="fill:#AEB9BA;" d="M417.312,464.053c0,22.142-73.988,40.07-165.258,40.07s-165.25-17.928-165.25-40.07"/>
<path style="fill:#E8B277;" d="M439.036,293.786c0,103.282-83.692,186.998-186.982,186.998
	c-103.227,0-186.959-83.716-186.959-186.998C65.087,190.527,148.819,0,252.054,0C355.344,0,439.036,190.527,439.036,293.786z"/>
<path style="fill:#EFBF8B;" d="M65.087,293.786C65.087,190.527,148.819,0,252.054,0"/>
<path style="fill:#D89E60;" d="M252.054,0c103.29,0,186.982,190.527,186.982,293.786c0,103.282-83.692,186.998-186.982,186.998"/>
</svg>
